<?xml version="1.0" encoding="UTF-8"?>
<svg id="Capa_1" xmlns="http://www.w3.org/2000/svg" viewBox="0 0 850.24 807.44">
  <defs>
    <style>
      .cls-1 {
        fill: #e63369;
      }
    </style>
  </defs>
  <g id="transparencia">
    <path class="cls-1" d="M819.77,498.43c-10.24-3.47-20.46-6.97-30.76-10.28-7.63-2.45-6.22-.81-6.22-8.36-.03-116.1-.02-232.2-.03-348.3,0-7.34-.52-8.05-7.37-10.44C660.75,81.18,546.1,41.32,431.5,1.3c-5.04-1.76-9.36-1.72-14.36.03-114.12,39.85-228.29,79.57-342.46,119.31q-8.59,2.99-8.6,11.94c0,115.6,0,231.19,0,346.79,0,1.33-.1,2.68.02,4,.19,2.03-.75,3.09-2.61,3.6-1.12.31-2.2.76-3.32,1.09-18.49,5.49-32.31,10.22-50.65,16.17-2.17.76-3.09,1.13-9.54,3.54,11.71,4.54,13.52,5.23,21.24,7.8,20.82,6.94,42.98,15.09,63.8,22.02,20.85,6.94,41.73,13.8,62.57,20.78,20.67,6.92,41.24,14.13,61.96,20.88,19.28,6.28,38.56,12.59,57.78,19.07,17.96,6.05,36,11.87,53.99,17.87,17.03,5.68,33.97,11.63,51.08,17.11,15.04,4.82,29.92,10.11,44.86,15.25,4.21,1.45,8.39,1.94,12.7.47,10.22-3.5,20.44-6.96,30.67-10.41,13.23-4.47,26.41-9.12,39.74-13.31,12.37-3.88,24.57-8.24,36.85-12.35,16.87-5.64,33.85-10.92,50.62-16.88,16.91-6.01,34.15-11.1,51.19-16.76,22.58-7.5,45.09-15.21,67.66-22.74,31.54-10.52,63.12-20.95,94.67-31.45,16.08-5.35,32.15-10.78,48.88-16.39-1.37-.56-1.96-.83-2.57-1.04-9.24-3.26-18.62-6.12-27.9-9.26ZM435.62,19.68c106.25,36.98,212.17,73.84,318.09,110.7v1.13c-105.93,36.87-211.86,73.74-318.09,110.71V19.68ZM413.22,19.62v222.65c-106.38-37.03-212.42-73.93-318.47-110.84v-.97c105.96-36.88,211.91-73.76,318.47-110.84ZM84.61,479.23V145.35c1.94-.41,3.41.58,4.93,1.11,106.17,36.92,212.33,73.86,318.49,110.81.79.27,1.54.67,2.35.84,2.31.5,3.2,1.71,3.1,4.21-.21,5.5-.06,11.01-.06,16.51,0,27.19.01,54.39,0,81.58,0,6.09.63,4.75-4.62,6.58-63.36,22.12-126.76,44.14-190.14,66.2-42.94,14.94-85.87,29.9-128.82,44.81-1.54.53-3.01,1.46-5.23,1.23ZM718.52,497.92c-19.71,6.61-39.41,13.27-59.14,19.83-18.78,6.25-37.6,12.39-56.4,18.62-14.83,4.91-29.65,9.87-44.47,14.83-13.87,4.64-27.73,9.34-41.61,13.96-15.46,5.15-30.95,10.21-46.41,15.36-13.88,4.62-27.77,9.25-41.6,14.01-3.18,1.1-6.05,1.03-9.21-.04-12.14-4.1-24.39-7.84-36.5-12.02-14.78-5.1-29.66-9.89-44.49-14.84-14.51-4.85-29.03-9.66-43.53-14.51-14.67-4.91-29.35-9.78-44.01-14.68-14.35-4.8-28.75-9.49-43.08-14.36-21.42-7.28-42.91-14.35-64.37-21.52-12.43-4.15-24.82-8.39-37.23-12.59v-.92c7.54-2.62,15.11-5.18,22.62-7.89,1.8-.65,3.3,0,4.82.5,7.43,2.44,14.82,5.01,22.24,7.47,17.38,5.75,34.8,11.37,52.14,17.23,14.34,4.85,28.73,9.57,43.09,14.36,14.68,4.89,29.35,9.82,44.03,14.7,14.37,4.77,28.74,9.56,43.1,14.35,14.67,4.9,29.41,9.62,44,14.76,9.42,3.32,19.15,5.69,28.35,9.63.88.38,1.85.78,3.35.33.07-1.57.21-3.31.21-5.05.01-62.05,0-124.11.01-186.16,0-2.17-.09-4.35.1-6.5.46-5.13,4.56-9.1,9.47-9.33,4.6-.21,9.01,3.29,9.94,8.18.4,2.11.38,4.31.38,6.47.02,62.39.01,124.77.04,187.16,0,1.8-.4,3.66.51,5.71,5.03-1.67,10.04-3.34,15.07-5,17.85-5.89,35.74-11.66,53.53-17.71,14.02-4.77,28.06-9.44,42.13-14.05,22.44-7.36,44.81-14.96,67.22-22.44,14.68-4.9,29.38-9.71,44.05-14.62,19.09-6.38,38.17-12.79,57.22-19.28,2.65-.9,5-1.01,7.68.02,6.06,2.33,12.24,4.33,18.38,6.46.77.27,1.68.3,2.12,1.66-7.89,2.63-15.82,5.26-23.75,7.92ZM763.87,479.14c-1.74.62-3.18-.52-4.62-1.02-72.66-25.25-145.31-50.55-217.96-75.84-33.49-11.66-66.99-23.32-100.48-34.98-1.1-.38-2.19-.82-3.31-1.12-1.53-.42-2.18-1.35-2.07-2.92.07-1,.01-2,.01-3,0-32.03-.01-64.06.01-96.08,0-5.77-.82-4.77,4.53-6.63,106.45-37.08,212.91-74.13,319.39-111.15,1.37-.48,2.7-1.35,4.5-1.06v333.82Z"/>
  </g>
</svg>